<svg width="852" height="196" viewBox="0 0 852 196" fill="none" xmlns="http://www.w3.org/2000/svg">
<path fill-rule="evenodd" clip-rule="evenodd" d="M317.904 55.208C300.743 59.688 287.693 73.573 283.451 91.866C281.404 100.692 281.432 117.444 283.507 125.49C288.194 143.665 301.063 156.825 318.072 160.834C326.353 162.786 339.973 162.79 347.45 160.842C363.732 156.601 375.489 144.172 378.396 128.125L379.076 124.375L369.28 124.385L359.485 124.396L356.714 130.352C352.044 140.389 342.611 145.119 329.187 144.156C311.202 142.865 300.882 128.057 302.242 105.494C302.91 94.425 305.886 86.465 311.668 80.283C324.961 66.071 348.663 68.427 356.826 84.771L359.125 89.375H368.449H377.772L376.831 85.125C373.554 70.333 360.279 57.874 344.186 54.49C336.648 52.904 325.57 53.207 317.904 55.208ZM572.161 54.379C555.576 57.895 546.565 68.118 546.602 83.375C546.624 92.141 548.179 96.37 553.578 102.346C558.701 108.017 566.434 111.704 582.224 116.004C589.517 117.99 597.19 120.48 599.274 121.536C609.372 126.652 609.083 138.152 598.72 143.56C592.638 146.734 581.307 146.712 574.742 143.514C569.296 140.861 566.672 137.639 565.05 131.616L563.908 127.375H554.612H545.316L546.138 133.383C547.239 141.439 550.813 148.136 556.959 153.662C564.545 160.482 569.603 161.883 586.485 161.837C598.724 161.804 601.24 161.506 606.485 159.463C614.283 156.426 622.937 147.898 625.321 140.902C629.09 129.84 626.336 117.402 618.616 110.624C613.144 105.819 608.547 103.798 592.767 99.257C572.497 93.424 566.985 89.864 566.985 82.603C566.985 77.979 569.43 73.722 573.252 71.691C577.636 69.362 590.276 69.331 594.616 71.638C598.718 73.82 602.649 78.571 603.48 82.351L604.144 85.375H613.564C624.284 85.375 623.982 85.71 621.536 76.519C618.958 66.833 611.92 59.445 601.746 55.744C596.684 53.903 578.391 53.059 572.161 54.379ZM406.19 85.207C396.826 88.552 389.997 95.956 387.964 104.968L387.196 108.375H395.905H404.615L406.262 104.92C409.995 97.092 424.692 94.974 430.529 101.423C431.604 102.611 432.348 105.069 432.399 107.602C432.509 112.986 430.962 113.794 416.386 115.957C398.226 118.653 390.867 122.573 386.973 131.625C382.423 142.201 386.235 153.879 396.029 159.375C399.995 161.6 401.64 161.875 410.985 161.875C419.941 161.875 422.1 161.546 425.669 159.638C427.97 158.408 430.558 156.396 431.419 155.166C432.945 152.987 432.985 153.038 432.985 157.19V161.45L442.235 161.163L451.485 160.875V131.875C451.485 100.297 451.151 97.911 445.886 91.916C441.144 86.514 434.159 84.108 421.985 83.683C413.546 83.388 410.446 83.687 406.19 85.207ZM495.749 84.315C491.743 85.603 486.204 89.224 484.484 91.68C483.061 93.711 482.985 93.579 482.985 89.098V84.375H473.485H463.985V137.375V190.375H473.526H483.067L482.776 170.874C482.616 160.148 482.611 151.373 482.766 151.374C482.92 151.375 484.379 152.893 486.008 154.749C487.637 156.604 491.315 159.131 494.18 160.364C498.555 162.246 500.679 162.534 507.437 162.162C525.25 161.184 536.463 149.422 539.219 128.823C541.752 109.89 535.24 94.2 521.804 86.864C517.218 84.36 515.245 83.924 507.485 83.697C502.535 83.553 497.254 83.831 495.749 84.315ZM654.317 85.164C648.382 87.287 643.047 91.075 640.034 95.307C638.083 98.047 634.985 105.528 634.985 107.501C634.985 107.982 638.952 108.375 643.8 108.375H652.615L654.262 104.92C658.318 96.415 674.291 94.968 679.053 102.676C681.733 107.015 681.238 111.502 677.904 113.092C676.484 113.769 670.859 114.995 665.404 115.817C646.622 118.646 639.835 122.022 635.518 130.684C630.007 141.744 633.743 153.989 644.361 159.669C647.862 161.542 650.071 161.875 658.985 161.875C670.344 161.875 673.878 160.751 678.622 155.632L680.985 153.083V157.229V161.375H689.985H698.985V132.024C698.985 112.74 698.595 101.508 697.847 99.274C695.966 93.658 692.317 89.685 686.364 86.772C681.511 84.398 679.249 83.965 670.106 83.665C661.656 83.387 658.429 83.694 654.317 85.164ZM803.309 84.759C794.058 87.774 785.708 95.401 781.286 104.875C778.687 110.441 778.485 111.779 778.485 123.375C778.485 135.038 778.678 136.293 781.365 142.109C784.311 148.488 791.054 155.82 796.578 158.651C805.099 163.019 823.423 163.541 832.107 159.664C838.487 156.816 844.39 151.21 847.428 145.114C851.239 137.466 851.175 137.375 841.968 137.375H833.951L829.718 141.771C822.332 149.442 812.124 150.411 804.543 144.163C800.4 140.747 797.042 134.493 797.007 130.125L796.985 127.375H824.121H851.258L850.771 118.083C850.366 110.34 849.761 107.692 847.143 102.206C843.598 94.778 838.049 89.194 831.107 86.068C825.269 83.439 809.62 82.702 803.309 84.759ZM704.397 93.625C706.254 98.712 712.283 115.25 717.795 130.375C723.307 145.5 728.128 158.663 728.508 159.625C729.103 161.132 730.614 161.375 739.378 161.375H749.557L761.921 127.625C768.722 109.063 775.111 91.738 776.121 89.125L777.956 84.375H768.197H758.438L749.555 110.625C744.669 125.063 740.392 137.203 740.05 137.603C739.709 138.004 735.401 126.191 730.478 111.353L721.527 84.375H711.274H701.021L704.397 93.625ZM820.67 98.442C822.218 99.028 824.557 100.491 825.867 101.692C828.247 103.874 831.922 110.765 831.963 113.125C831.98 114.078 827.83 114.375 814.485 114.375C801.14 114.375 796.99 114.078 797.007 113.125C797.046 110.924 800.639 103.93 802.594 102.25C807.932 97.664 814.798 96.217 820.67 98.442ZM509.45 100.653C515.559 104.114 519.185 110.798 519.747 119.636C520.531 131.979 516.969 140.107 509.015 144.125C499.851 148.755 490.564 145.643 485.67 136.302C483.019 131.242 482.849 130.221 483.156 121.208C483.457 112.353 483.738 111.177 486.498 107.208C489.971 102.215 496.713 98.367 501.947 98.391C503.893 98.4 507.269 99.418 509.45 100.653ZM432.538 132.625C431.281 143.772 426.304 148.375 415.507 148.375C410.515 148.375 409.464 148.008 406.785 145.329C404.18 142.724 403.823 141.763 404.319 138.705C405.377 132.185 408.698 130.113 421.548 127.953C434.285 125.812 433.352 125.415 432.538 132.625ZM680.61 129.5C680.266 131.219 679.985 134.161 679.985 136.039C679.985 138.624 679.041 140.465 676.093 143.625C672.345 147.642 671.938 147.812 665.127 148.197C658.345 148.58 657.928 148.472 655.019 145.563C651.605 142.148 651.062 138.138 653.536 134.605C655.862 131.284 658.592 130.132 668.485 128.294C681.659 125.847 681.347 125.816 680.61 129.5Z" fill="white"/>
<path fill-rule="evenodd" clip-rule="evenodd" d="M108.985 0.992009C77.8421 8.29301 54.9921 29.022 48.3301 56.019C46.7481 62.431 46.6871 62.51 42.7671 63.172C40.5881 63.54 35.1721 65.659 30.7331 67.881C11.4591 77.528 -0.0379061 96.755 9.39049e-05 119.279C0.0290939 136.876 4.7661 148.454 16.9511 160.716C25.3881 169.206 35.0991 174.77 44.8141 176.681C50.2801 177.756 50.6111 177.999 52.3461 182.194C54.3461 187.03 59.5441 192.135 64.6301 194.26C69.4771 196.285 180.493 196.285 185.34 194.26C190.253 192.207 195.581 187.102 197.979 182.148C199.638 178.72 200.922 177.49 203.796 176.571C218.572 171.85 234.716 158.099 241.292 144.634C246.5 133.971 248.089 126.924 248.066 114.59C248.044 102.45 246.027 94.441 240.147 83.135C233.186 69.752 216 55.419 202.32 51.589C198.169 50.426 197.704 49.909 193.479 41.748C188.294 31.734 183.969 26.212 175.498 18.79C167.343 11.645 159.436 7.26003 147.985 3.53303C140.022 0.941025 136.543 0.381027 126.485 0.0720265C118.906 -0.160973 112.459 0.178009 108.985 0.992009ZM141.005 18.691C156.736 23.015 171.839 35.21 178.22 48.74C180.138 52.807 182.395 57.735 183.237 59.691C184.593 62.842 185.472 63.443 190.958 64.968C204.871 68.836 216.247 76.712 223.224 87.306C239.848 112.548 232.669 142.654 206.449 157.655C203.585 159.294 200.959 160.635 200.613 160.635C200.268 160.635 199.975 147.472 199.963 131.385C199.938 98.533 199.677 97.083 192.655 90.919C188.283 87.08 184.293 85.901 172.643 85.005L163.839 84.329L159.027 77.232C150.339 64.419 152.334 65.183 126.631 64.833C100.439 64.478 101.373 64.15 92.1271 76.939L86.4851 84.742L76.8511 85.169C71.5521 85.404 65.9291 86.086 64.3551 86.684C59.2141 88.639 54.8141 92.806 52.3871 98.018C50.0481 103.041 50.0041 103.674 49.9951 132.452L49.9851 161.77L47.7351 161.072C42.2521 159.372 33.3391 154.111 28.8911 149.951C19.4021 141.074 15.5421 131.164 16.1681 117.281C16.6811 105.892 19.3351 99.611 27.2461 91.066C33.9621 83.813 41.3351 79.929 51.8571 78.101C60.3151 76.632 61.9851 75.24 61.9851 69.654C61.9851 64.467 64.6271 55.083 67.7421 49.21C69.2221 46.419 74.2701 40.267 78.9591 35.539C88.0761 26.347 96.7721 21.156 107.985 18.211C116.399 16.001 132.047 16.229 141.005 18.691ZM146.243 86.885C154.536 99.325 154.052 99.05 168.673 99.635C180.842 100.122 181.221 100.206 183.572 102.941L185.985 105.747V140.614V175.482L183.396 178.558L180.807 181.635H124.985H69.1631L66.5741 178.558L63.9851 175.482L64.0171 140.308C64.0411 113.036 64.3411 104.751 65.3481 103.424C67.5501 100.527 71.6841 99.635 82.9151 99.635C95.8621 99.635 95.9841 99.565 104.444 87.237L110.347 78.635H125.545H140.743L146.243 86.885ZM120.985 102.327C107.172 104.645 96.9131 113.896 93.5181 127.095C91.4881 134.989 91.5841 139.127 93.9801 146.883C99.7701 165.631 121.418 173.966 139.985 164.597C145.023 162.055 152.366 154.439 155.116 148.903C157.135 144.839 157.483 142.659 157.474 134.135C157.465 125.254 157.167 123.576 154.814 119.135C150.243 110.512 143.597 105.463 133.762 103.145C127.474 101.662 125.645 101.545 120.985 102.327ZM134.025 119.938C143.514 124.956 145.821 138.367 138.596 146.517C134.043 151.653 124.691 153.983 118.3 151.574C110.368 148.583 105.324 138.199 107.945 130.257C111.631 119.087 123.52 114.383 134.025 119.938Z" fill="#0672FF"/>
</svg>
